<svg xmlns="http://www.w3.org/2000/svg" version="1.1" xmlns:xlink="http://www.w3.org/1999/xlink"
    xmlns:svgjs="http://svgjs.dev/svgjs" width="1500" height="1500" viewBox="0 0 1500 1500">
    <g transform="matrix(1,0,0,1,-0.323615160350073,-0.3236151603499593)">
        <svg viewBox="0 0 343 343" data-background-color="#000000"
            preserveAspectRatio="xMidYMid meet" height="1500" width="1500"
            xmlns="http://www.w3.org/2000/svg" xmlns:xlink="http://www.w3.org/1999/xlink">
            <g id="tight-bounds" transform="matrix(1,0,0,1,0.0740000000000407,0.07400000000001228)">
                <svg viewBox="0 0 342.85155851775386 342.85155851775386" height="342.85155851775386"
                    width="342.85155851775386">
                    <rect width="342.852" height="342.852"
                        fill="url(#24a70ba3-7a35-4c9c-baf3-4c558ced57fd)"
                        mask="url(#7339efd1-51eb-4e06-a245-2bff8682769c)"
                        data-fill-palette-color="tertiary"></rect>
                    <g>
                        <svg></svg>
                    </g>
                    <g>
                        <svg viewBox="0 0 342.85155851775386 342.85155851775386"
                            height="342.85155851775386" width="342.85155851775386">
                            <g>
                                <path
                                    d="M0 171.426c0-94.676 76.75-171.426 171.426-171.426 94.676 0 171.426 76.75 171.426 171.426 0 94.676-76.75 171.426-171.426 171.426-94.676 0-171.426-76.75-171.426-171.426zM171.426 332.349c88.875 0 160.923-72.048 160.923-160.923 0-88.875-72.048-160.923-160.923-160.923-88.875 0-160.923 72.048-160.923 160.923 0 88.875 72.048 160.923 160.923 160.923z"
                                    data-fill-palette-color="tertiary"
                                    fill="url(#24a70ba3-7a35-4c9c-baf3-4c558ced57fd)"
                                    stroke="transparent"></path>
                                <ellipse rx="164.56874808852186" ry="164.56874808852186"
                                    cx="171.42577925887693" cy="171.42577925887693"
                                    fill="url(#24a70ba3-7a35-4c9c-baf3-4c558ced57fd)"
                                    stroke="transparent" stroke-width="0" fill-opacity="1"
                                    data-fill-palette-color="tertiary"></ellipse>
                            </g>
                            <g transform="matrix(1,0,0,1,64.84655864529837,113.19296472307846)">
                                <svg viewBox="0 0 213.1584412271571 116.46562907159692"
                                    height="116.46562907159692" width="213.1584412271571">
                                    <g>
                                        <svg viewBox="0 0 213.1584412271571 116.46562907159692"
                                            height="116.46562907159692" width="213.1584412271571">
                                            <g>
                                                <svg
                                                    viewBox="0 0 213.1584412271571 116.46562907159692"
                                                    height="116.46562907159692"
                                                    width="213.1584412271571">
                                                    <g>
                                                        <svg
                                                            viewBox="0 0 213.1584412271571 116.46562907159692"
                                                            height="116.46562907159692"
                                                            width="213.1584412271571">
                                                            <g id="textblocktransform">
                                                                <svg
                                                                    viewBox="0 0 213.1584412271571 116.46562907159692"
                                                                    height="116.46562907159692"
                                                                    width="213.1584412271571"
                                                                    id="textblock">
                                                                    <g>
                                                                        <svg
                                                                            viewBox="0 0 213.1584412271571 116.46562907159692"
                                                                            height="116.46562907159692"
                                                                            width="213.1584412271571">
                                                                            <g
                                                                                transform="matrix(1,0,0,1,0,0)">
                                                                                <svg
                                                                                    width="213.1584412271571"
                                                                                    viewBox="0.34375 -40.45 74.85625 40.900000000000006"
                                                                                    height="116.46562907159692"
                                                                                    data-palette-color="#000000">
                                                                                    <path
                                                                                        d="M28.15-1.2L17.15-34.8 6.2-1.2 6.2-1.25Q5.9-0.5 5.38-0.03 4.85 0.45 4.1 0.45L4.1 0.45Q3.7 0.45 3.33 0.38 2.95 0.3 2.55 0.2L2.55 0.2 2.6 0.2Q-0.25-0.7 0.5-3L0.5-3 11.9-37.65Q12.15-38.45 12.78-39 13.4-39.55 14.25-39.65L14.25-39.65Q15.1-39.8 15.9-39.88 16.7-39.95 17.15-39.95L17.15-39.95Q17.6-39.95 18.4-39.88 19.2-39.8 20.05-39.7L20.05-39.7Q20.75-39.6 21.43-38.95 22.1-38.3 22.45-37.65L22.45-37.65Q25.25-29.05 28.13-20.33 31-11.6 33.8-3L33.8-3Q34.5-0.7 31.7 0.2L31.7 0.2Q31.3 0.3 30.98 0.38 30.65 0.45 30.25 0.45L30.25 0.45Q29.55 0.45 28.98-0.03 28.4-0.5 28.15-1.25L28.15-1.25 28.15-1.2ZM20.9-12L20.9-12Q20.9-10.4 19.78-9.28 18.65-8.15 17.05-8.15L17.05-8.15Q15.45-8.15 14.35-9.28 13.25-10.4 13.25-12L13.25-12Q13.25-13.6 14.35-14.73 15.45-15.85 17.05-15.85L17.05-15.85Q18.65-15.85 19.78-14.73 20.9-13.6 20.9-12ZM56.4-1.75L56.4-25.4 46.75-25.4Q44.7-25.4 44.05-24.2L44.05-24.2Q43.35-23.15 43.35-21.75L43.35-21.75 43.35-7.35Q43.35-6.05 44.15-5.38 44.95-4.7 46.8-4.7L46.8-4.7 51.95-4.7Q53.75-4.7 53.75-2.35L53.75-2.35Q53.75-1.35 53.32-0.68 52.9 0 51.95 0L51.95 0 45.9 0Q42.75 0 40.3-1.6L40.3-1.6Q37.85-3.1 37.85-7.3L37.85-7.3 37.85-22.2Q37.85-24.25 38.5-25.75 39.15-27.25 40.55-28.2L40.55-28.2Q43.2-30.1 45.85-30.1L45.85-30.1 56.4-30.1 56.4-37.6Q56.4-40 59.15-40L59.15-40Q61.9-40 61.9-37.6L61.9-37.6 61.9-2.1Q61.9 0.3 59.15 0.3L59.15 0.3Q58.1 0.3 57.25-0.08 56.4-0.45 56.4-1.75L56.4-1.75ZM74.15-27.9L74.15-2.1Q74.15 0.3 71.4 0.3L71.4 0.3Q68.6 0.3 68.6-2.1L68.6-2.1 68.6-27.9Q68.6-30.3 71.4-30.3L71.4-30.3Q74.15-30.3 74.15-27.9L74.15-27.9ZM75.2-36.6L75.2-36.6Q75.2-35 74.1-33.9 73-32.8 71.4-32.8L71.4-32.8Q69.8-32.8 68.67-33.9 67.55-35 67.55-36.6L67.55-36.6Q67.55-38.25 68.67-39.35 69.8-40.45 71.4-40.45L71.4-40.45Q73-40.45 74.1-39.35 75.2-38.25 75.2-36.6Z"
                                                                                        opacity="1"
                                                                                        transform="matrix(1,0,0,1,0,0)"
                                                                                        fill="#000000"
                                                                                        class="wordmark-text-0"
                                                                                        data-fill-palette-color="quaternary"
                                                                                        id="text-0"></path>
                                                                                </svg>
                                                                            </g>
                                                                        </svg>
                                                                    </g>
                                                                </svg>
                                                            </g>
                                                        </svg>
                                                    </g>
                                                    <g></g>
                                                </svg>
                                            </g>
                                        </svg>
                                    </g>
                                </svg>
                            </g>
                        </svg>
                    </g>
                    <defs></defs>
                    <mask id="7339efd1-51eb-4e06-a245-2bff8682769c">
                        <g id="SvgjsG2075">
                            <svg viewBox="0 0 342.85155851775386 342.85155851775386"
                                height="342.85155851775386" width="342.85155851775386">
                                <g>
                                    <svg></svg>
                                </g>
                                <g>
                                    <svg viewBox="0 0 342.85155851775386 342.85155851775386"
                                        height="342.85155851775386" width="342.85155851775386">
                                        <g>
                                            <path
                                                d="M0 171.426c0-94.676 76.75-171.426 171.426-171.426 94.676 0 171.426 76.75 171.426 171.426 0 94.676-76.75 171.426-171.426 171.426-94.676 0-171.426-76.75-171.426-171.426zM171.426 332.349c88.875 0 160.923-72.048 160.923-160.923 0-88.875-72.048-160.923-160.923-160.923-88.875 0-160.923 72.048-160.923 160.923 0 88.875 72.048 160.923 160.923 160.923z"
                                                fill="white" stroke="transparent"></path>
                                            <ellipse rx="164.56874808852186" ry="164.56874808852186"
                                                cx="171.42577925887693" cy="171.42577925887693"
                                                fill="white" stroke="transparent" stroke-width="0"
                                                fill-opacity="1"></ellipse>
                                        </g>
                                        <g
                                            transform="matrix(1,0,0,1,64.84655864529837,113.19296472307846)">
                                            <svg viewBox="0 0 213.1584412271571 116.46562907159692"
                                                height="116.46562907159692"
                                                width="213.1584412271571">
                                                <g>
                                                    <svg
                                                        viewBox="0 0 213.1584412271571 116.46562907159692"
                                                        height="116.46562907159692"
                                                        width="213.1584412271571">
                                                        <g>
                                                            <svg
                                                                viewBox="0 0 213.1584412271571 116.46562907159692"
                                                                height="116.46562907159692"
                                                                width="213.1584412271571">
                                                                <g>
                                                                    <svg
                                                                        viewBox="0 0 213.1584412271571 116.46562907159692"
                                                                        height="116.46562907159692"
                                                                        width="213.1584412271571">
                                                                        <g id="SvgjsG2074">
                                                                            <svg
                                                                                viewBox="0 0 213.1584412271571 116.46562907159692"
                                                                                height="116.46562907159692"
                                                                                width="213.1584412271571"
                                                                                id="SvgjsSvg2073">
                                                                                <g>
                                                                                    <svg
                                                                                        viewBox="0 0 213.1584412271571 116.46562907159692"
                                                                                        height="116.46562907159692"
                                                                                        width="213.1584412271571">
                                                                                        <g
                                                                                            transform="matrix(1,0,0,1,0,0)">
                                                                                            <svg
                                                                                                width="213.1584412271571"
                                                                                                viewBox="0.34375 -40.45 74.85625 40.900000000000006"
                                                                                                height="116.46562907159692"
                                                                                                data-palette-color="#000000">
                                                                                                <path
                                                                                                    d="M28.15-1.2L17.15-34.8 6.2-1.2 6.2-1.25Q5.9-0.5 5.38-0.03 4.85 0.45 4.1 0.45L4.1 0.45Q3.7 0.45 3.33 0.38 2.95 0.3 2.55 0.2L2.55 0.2 2.6 0.2Q-0.25-0.7 0.5-3L0.5-3 11.9-37.65Q12.15-38.45 12.78-39 13.4-39.55 14.25-39.65L14.25-39.65Q15.1-39.8 15.9-39.88 16.7-39.95 17.15-39.95L17.15-39.95Q17.6-39.95 18.4-39.88 19.2-39.8 20.05-39.7L20.05-39.7Q20.75-39.6 21.43-38.95 22.1-38.3 22.45-37.65L22.45-37.65Q25.25-29.05 28.13-20.33 31-11.6 33.8-3L33.8-3Q34.5-0.7 31.7 0.2L31.7 0.2Q31.3 0.3 30.98 0.38 30.65 0.45 30.25 0.45L30.25 0.45Q29.55 0.45 28.98-0.03 28.4-0.5 28.15-1.25L28.15-1.25 28.15-1.2ZM20.9-12L20.9-12Q20.9-10.4 19.78-9.28 18.65-8.15 17.05-8.15L17.05-8.15Q15.45-8.15 14.35-9.28 13.25-10.4 13.25-12L13.25-12Q13.25-13.6 14.35-14.73 15.45-15.85 17.05-15.85L17.05-15.85Q18.65-15.85 19.78-14.73 20.9-13.6 20.9-12ZM56.4-1.75L56.4-25.4 46.75-25.4Q44.7-25.4 44.05-24.2L44.05-24.2Q43.35-23.15 43.35-21.75L43.35-21.75 43.35-7.35Q43.35-6.05 44.15-5.38 44.95-4.7 46.8-4.7L46.8-4.7 51.95-4.7Q53.75-4.7 53.75-2.35L53.75-2.35Q53.75-1.35 53.32-0.68 52.9 0 51.95 0L51.95 0 45.9 0Q42.75 0 40.3-1.6L40.3-1.6Q37.85-3.1 37.85-7.3L37.85-7.3 37.85-22.2Q37.85-24.25 38.5-25.75 39.15-27.25 40.55-28.2L40.55-28.2Q43.2-30.1 45.85-30.1L45.85-30.1 56.4-30.1 56.4-37.6Q56.4-40 59.15-40L59.15-40Q61.9-40 61.9-37.6L61.9-37.6 61.9-2.1Q61.9 0.3 59.15 0.3L59.15 0.3Q58.1 0.3 57.25-0.08 56.4-0.45 56.4-1.75L56.4-1.75ZM74.15-27.9L74.15-2.1Q74.15 0.3 71.4 0.3L71.4 0.3Q68.6 0.3 68.6-2.1L68.6-2.1 68.6-27.9Q68.6-30.3 71.4-30.3L71.4-30.3Q74.15-30.3 74.15-27.9L74.15-27.9ZM75.2-36.6L75.2-36.6Q75.2-35 74.1-33.9 73-32.8 71.4-32.8L71.4-32.8Q69.8-32.8 68.67-33.9 67.55-35 67.55-36.6L67.55-36.6Q67.55-38.25 68.67-39.35 69.8-40.45 71.4-40.45L71.4-40.45Q73-40.45 74.1-39.35 75.2-38.25 75.2-36.6Z"
                                                                                                    opacity="1"
                                                                                                    transform="matrix(1,0,0,1,0,0)"
                                                                                                    fill="black"
                                                                                                    class="wordmark-text-0"
                                                                                                    id="SvgjsPath2072"></path>
                                                                                            </svg>
                                                                                        </g>
                                                                                    </svg>
                                                                                </g>
                                                                            </svg>
                                                                        </g>
                                                                    </svg>
                                                                </g>
                                                                <g></g>
                                                            </svg>
                                                        </g>
                                                    </svg>
                                                </g>
                                            </svg>
                                        </g>
                                    </svg>
                                </g>
                                <defs>
                                    <mask></mask>
                                </defs>
                            </svg>
                            <rect width="342.85155851775386" height="342.85155851775386"
                                fill="black" stroke="none" visibility="hidden"></rect>
                        </g>
                    </mask>
                    <linearGradient x1="0.054" x2="0.941" y1="0.5" y2="0.5"
                        id="24a70ba3-7a35-4c9c-baf3-4c558ced57fd">
                        <stop stop-color="#9c7945" offset="0"></stop>
                        <stop stop-color="#faf3aa" offset="0.498"></stop>
                        <stop stop-color="#9c7945" offset="1"></stop>
                    </linearGradient>
                </svg>
                <rect width="342.85155851775386" height="342.85155851775386" fill="none"
                    stroke="none" visibility="hidden"></rect>
            </g>
        </svg>
    </g>
</svg>